<svg xmlns="http://www.w3.org/2000/svg" width="13" height="12" viewBox="0 0 13 12" fill="none">
  <path d="M11.7 6.61338H2.1V2.12454C2.09954 1.95549 2.13269 1.78803 2.19754 1.63185C2.2624 1.47567 2.35766 1.33388 2.47783 1.21467L2.48783 1.2047C2.67614 1.01713 2.91792 0.892122 3.18013 0.846764C3.44234 0.801406 3.71219 0.837907 3.95283 0.951279C3.72557 1.32819 3.63111 1.77005 3.68446 2.20665C3.73781 2.64325 3.93591 3.04955 4.24728 3.36097L4.52105 3.63406L4.01712 4.13676L4.58278 4.70101L5.0867 4.19834L7.87893 1.41308L8.38285 0.910405L7.81718 0.346132L7.31322 0.848808L7.03945 0.575712C6.71167 0.249655 6.27958 0.0486612 5.8185 0.00775649C5.35741 -0.0331482 4.89655 0.0886293 4.51623 0.351868C4.11518 0.0992244 3.63992 -0.00984383 3.16851 0.0425809C2.69711 0.0950056 2.25759 0.305806 1.92218 0.640351L1.91218 0.650327C1.71749 0.843471 1.56313 1.07322 1.45805 1.32627C1.35297 1.57931 1.29925 1.85064 1.3 2.12454V6.61338H0.5V7.4114H1.3V8.177C1.29998 8.24133 1.31038 8.30523 1.3308 8.36625L2.075 10.5932C2.11471 10.7124 2.19108 10.8162 2.29325 10.8896C2.39542 10.9631 2.5182 11.0026 2.64415 11.0025H2.96665L2.675 12H3.50832L3.8 11.0025H9.0025L9.3025 12H10.1375L9.8375 11.0025H10.3558C10.4817 11.0026 10.6045 10.9631 10.7067 10.8897C10.8089 10.8162 10.8853 10.7125 10.925 10.5932L11.6692 8.36625C11.6896 8.30523 11.7 8.24133 11.7 8.177V7.4114H12.5V6.61338H11.7ZM4.813 1.13998C5.0334 0.920611 5.33204 0.797407 5.64339 0.797407C5.95474 0.797407 6.25338 0.920611 6.47378 1.13998L6.7475 1.41308L5.08677 3.06969L4.813 2.79664C4.59309 2.57678 4.46959 2.27889 4.46959 1.96831C4.46959 1.65774 4.59309 1.35984 4.813 1.13998ZM10.9 8.14458L10.2117 10.2045H2.7883L2.1 8.14458V7.4114H10.9V8.14458Z" fill="#605A5A"/>
</svg>