<svg xmlns="http://www.w3.org/2000/svg" width="62" height="21" viewBox="0 0 62 21" fill="none">
  <g clip-path="url(#clip0_1969_1561)">
    <path fill-rule="evenodd" clip-rule="evenodd" d="M10.787 1.14941C10.7669 1.14941 10.7472 1.14941 10.7274 1.14941C8.0715 1.14941 5.51505 1.778 3.03824 3.0458C2.03356 5.47949 1.46668 7.95379 1.43674 10.479C1.39692 12.9836 1.9042 15.5491 3.02835 18.1657C5.61447 19.3114 8.20059 19.8997 10.787 19.9302C13.3731 19.8997 15.9595 19.3114 18.5456 18.1657C19.6698 15.5491 20.1771 12.9836 20.1372 10.479C20.1073 7.95379 19.5404 5.47949 18.5357 3.0458C16.0589 1.778 13.5025 1.14941 10.8466 1.14941C10.8268 1.14941 10.807 1.14941 10.787 1.14941Z" fill="#FEFEFE"/>
    <path d="M2.62096 2.48822C5.22713 1.12914 7.93272 0.459961 10.7279 0.459961C10.7476 0.459961 10.7674 0.459961 10.7875 0.459961C10.8075 0.459961 10.8273 0.459961 10.8471 0.459961C13.6422 0.459961 16.3478 1.12914 18.9539 2.48822L19.1132 2.66042C20.1775 5.21591 20.7842 7.82208 20.8142 10.4688C20.8142 10.5195 20.8142 10.5601 20.8142 10.6108V10.7934C20.8043 13.3388 20.2671 15.9349 19.1132 18.5715L18.9342 18.7437C16.2187 19.9709 13.5029 20.5894 10.7875 20.62C8.07197 20.5894 5.35622 19.9709 2.64073 18.7437L2.46166 18.5715C1.30785 15.9349 0.77063 13.3388 0.760742 10.7934V10.6108C0.760742 10.5601 0.760742 10.5195 0.760742 10.4688C0.790679 7.82208 1.39738 5.21591 2.46166 2.66042L2.62096 2.48822ZM10.7875 1.14958C10.7674 1.14958 10.7476 1.14958 10.7279 1.14958C8.07197 1.14958 5.51551 1.77816 3.0387 3.04597C2.03403 5.47966 1.46715 7.95395 1.43721 10.4792C1.39738 12.9837 1.90467 15.5493 3.02882 18.1658C5.61494 19.3116 8.20106 19.8998 10.7875 19.9303C13.3736 19.8998 15.96 19.3116 18.5461 18.1658C19.6702 15.5493 20.1775 12.9837 20.1377 10.4792C20.1078 7.95395 19.5409 5.47966 18.5362 3.04597C16.0594 1.77816 13.5029 1.14958 10.8471 1.14958C10.8273 1.14958 10.8075 1.14958 10.7875 1.14958Z" fill="#003399"/>
    <path fill-rule="evenodd" clip-rule="evenodd" d="M10.966 16.1678C10.8267 14.2309 10.9163 12.213 10.3491 10.3672C9.82207 8.64333 7.8226 7.65972 7.78278 5.76333C7.74295 4.28273 8.84733 2.5689 10.9163 2.5689C12.8559 2.55882 14.0594 3.99882 14.1986 5.60122C14.3678 7.45701 12.1596 8.70409 11.5826 10.4686C10.9858 12.2737 11.155 14.2715 10.966 16.1678Z" fill="#003399"/>
    <path fill-rule="evenodd" clip-rule="evenodd" d="M11.7324 15.7017C11.6527 14.0184 11.6527 12.406 12.1103 10.976C12.6176 9.35349 13.672 7.9846 15.2833 7.5383C16.3874 7.23422 18.009 8.55243 17.7503 9.90115C17.5314 10.9861 16.4671 12.264 14.7563 12.406C13.9604 12.4771 13.6223 13.1258 13.1249 13.5013C15.3531 13.2781 16.7953 12.3855 17.8 11.4526C17.9491 12.2436 18.0485 13.5721 17.4418 14.0285C16.2482 14.8903 15.1441 14.1906 13.7415 14.5963C12.9557 14.8296 12.4684 15.3366 11.7324 15.7017Z" fill="#003399"/>
    <path fill-rule="evenodd" clip-rule="evenodd" d="M10.2099 15.7017C10.2995 14.0184 10.2896 12.406 9.84188 10.976C9.3346 9.35349 8.28021 7.9846 6.66883 7.5383C5.56473 7.23422 3.9333 8.55243 4.20191 9.90115C4.42081 10.9861 5.48508 12.264 7.19616 12.406C7.98194 12.4771 8.32993 13.1258 8.82732 13.5013C6.58918 13.2781 5.15687 12.3855 4.1522 11.4526C4.00306 12.2436 3.90364 13.5721 4.51034 14.0285C5.70398 14.8903 6.80808 14.1906 8.21073 14.5963C8.99651 14.8296 9.47385 15.3366 10.2099 15.7017Z" fill="#003399"/>
    <path fill-rule="evenodd" clip-rule="evenodd" d="M15.512 18.2063V17.9324L15.7109 17.8818L15.512 17.5774V17.0703L16.4074 18.3382L16.0891 18.4191L15.8702 18.1046L15.512 18.2063ZM15.512 17.0703V17.5774L15.3728 17.3747L15.3132 17.9831L15.512 17.9324V18.2063L15.2833 18.257L15.2434 18.6321L14.9251 18.7133L15.1341 17.0603L15.4524 16.9791L15.512 17.0703ZM12.5477 19.0885V18.8248H12.6175C12.7268 18.8147 12.7966 18.8046 12.8262 18.7943C12.866 18.7842 12.9059 18.7537 12.9259 18.7234C12.9556 18.6828 12.9657 18.6422 12.9657 18.5915C12.9556 18.5409 12.9457 18.5003 12.9158 18.4697C12.896 18.4395 12.8562 18.4191 12.8163 18.409C12.7765 18.3989 12.687 18.3989 12.5477 18.409V18.1452C12.6274 18.1452 12.6771 18.1352 12.6971 18.1352C12.7468 18.1251 12.7867 18.0946 12.8163 18.0643C12.8463 18.0338 12.8562 17.9932 12.8463 17.9425C12.8463 17.8918 12.8262 17.8512 12.7966 17.8311C12.7765 17.8006 12.7367 17.7804 12.6771 17.7804C12.6573 17.7804 12.6175 17.7804 12.5477 17.7905V17.5267C12.6573 17.5167 12.7367 17.5167 12.7867 17.5267C12.8463 17.5267 12.9059 17.5472 12.9556 17.5774C13.0053 17.5979 13.0451 17.6382 13.0849 17.6891C13.1149 17.7398 13.1347 17.8006 13.1445 17.8714C13.1547 17.9425 13.1347 18.0136 13.1047 18.0744C13.0751 18.1352 13.0253 18.1858 12.9556 18.2264C13.055 18.2469 13.1347 18.2872 13.1844 18.3482C13.2442 18.409 13.2739 18.4801 13.2838 18.5714C13.2838 18.6422 13.2739 18.7133 13.2541 18.7842C13.2242 18.8553 13.1844 18.906 13.1347 18.9567C13.0751 18.9973 13.0155 19.0275 12.9358 19.0479C12.8861 19.058 12.7567 19.0681 12.5678 19.0885H12.5477ZM14.4277 18.2365L14.7361 18.2771C14.7164 18.4496 14.6667 18.5915 14.5771 18.6929C14.4876 18.7842 14.3582 18.8553 14.1989 18.8855C14.0001 18.9161 13.821 18.8755 13.6719 18.764C13.5126 18.6422 13.423 18.4697 13.3733 18.2264C13.3338 17.973 13.3634 17.76 13.473 17.5979C13.5724 17.4355 13.7315 17.3341 13.9405 17.2935C14.1294 17.263 14.2786 17.2935 14.4178 17.3848C14.4975 17.4355 14.567 17.5167 14.6167 17.6382L14.3283 17.76C14.2986 17.6891 14.2486 17.6281 14.189 17.5979C14.1196 17.5573 14.0498 17.5472 13.9701 17.5573C13.8608 17.5774 13.7812 17.6382 13.7216 17.7297C13.662 17.8311 13.6518 17.963 13.6818 18.1452C13.7216 18.3382 13.7812 18.4698 13.8608 18.5409C13.9405 18.612 14.0399 18.6422 14.1492 18.6221C14.2289 18.6016 14.2885 18.561 14.3382 18.5003C14.3882 18.4395 14.4178 18.3482 14.4277 18.2365ZM12.5477 17.5267V17.7905C12.5082 17.7905 12.4683 17.8006 12.4186 17.8006L12.2396 17.821L12.2692 18.1758L12.4782 18.1556C12.498 18.1556 12.5279 18.1556 12.5477 18.1452V18.409C12.5477 18.409 12.5477 18.409 12.5378 18.409L12.2992 18.4294L12.3291 18.8449L12.5477 18.8248V19.0885L12.0503 19.1392L11.9111 17.5875L12.5181 17.5368C12.5279 17.5267 12.5378 17.5267 12.5477 17.5267ZM10.6279 18.5509V18.2872C10.6977 18.2872 10.7375 18.2771 10.7672 18.267C10.807 18.257 10.8369 18.2264 10.8669 18.1962C10.8866 18.1556 10.8965 18.115 10.8965 18.0744C10.9067 18.0136 10.8866 17.973 10.8567 17.9324C10.827 17.8918 10.7872 17.8714 10.7375 17.8613C10.7076 17.8613 10.6776 17.8512 10.6279 17.8512V17.5875C10.7773 17.5875 10.8669 17.5979 10.9166 17.618C11.0061 17.6382 11.0756 17.6891 11.1352 17.77C11.1951 17.8512 11.2247 17.9526 11.2148 18.0744C11.2148 18.1657 11.1951 18.2469 11.1651 18.3177C11.1253 18.3788 11.0855 18.4294 11.0358 18.4697C10.9762 18.5003 10.9265 18.5204 10.8669 18.5409C10.807 18.5509 10.7276 18.5509 10.6279 18.5509ZM10.6279 17.5875V17.8512C10.5982 17.8512 10.5584 17.8512 10.5087 17.8512L10.3596 17.8412V18.2872H10.5186C10.5584 18.2872 10.5982 18.2872 10.6279 18.2872V18.5509C10.6081 18.5509 10.5782 18.5509 10.5485 18.5509H10.3494L10.3395 19.1392L10.0311 19.1289L10.061 17.5774L10.5485 17.5875C10.5782 17.5875 10.6081 17.5875 10.6279 17.5875ZM7.7534 18.3989V17.9224C7.84294 17.9425 7.90254 17.9425 7.93247 17.9425C7.9723 17.9324 8.00196 17.9224 8.0319 17.8918C8.05167 17.8613 8.07172 17.8311 8.08161 17.7804C8.0915 17.7297 8.08161 17.6891 8.06156 17.6485C8.04179 17.6079 8.00196 17.5875 7.95225 17.5673C7.93247 17.5573 7.86271 17.5472 7.7534 17.5267V17.263L7.88276 17.2834C8.04179 17.3139 8.1511 17.3442 8.22086 17.3848C8.29035 17.4254 8.34033 17.4861 8.36999 17.5673C8.39993 17.6382 8.40982 17.7297 8.39004 17.821C8.36999 17.9324 8.32028 18.0237 8.24063 18.0845C8.17115 18.1452 8.06156 18.1758 7.92231 18.1758C7.98219 18.2264 8.0319 18.2771 8.06156 18.3278C8.10138 18.3888 8.14121 18.4801 8.19092 18.612L8.32028 18.9466L7.96214 18.8755L7.80311 18.5003C7.78306 18.4698 7.77318 18.4294 7.7534 18.3989ZM8.62872 17.4355L8.92699 17.466L8.8575 18.3076C8.84761 18.4395 8.84761 18.5308 8.84761 18.561C8.8575 18.6321 8.88716 18.6828 8.92699 18.7234C8.9767 18.7741 9.03657 18.7943 9.12611 18.8046C9.21565 18.8147 9.28513 18.7943 9.32496 18.764C9.37467 18.7335 9.40461 18.6929 9.42438 18.6422C9.43427 18.5915 9.44443 18.5003 9.45432 18.3788L9.52381 17.5167L9.83224 17.5472L9.76275 18.3583C9.75259 18.5509 9.73282 18.6828 9.70288 18.7537C9.6831 18.8248 9.64328 18.8956 9.60346 18.9362C9.55374 18.9872 9.48426 19.0275 9.40461 19.0479C9.33485 19.0785 9.23542 19.0785 9.11595 19.0681C8.96681 19.058 8.8575 19.0275 8.78774 18.9872C8.71825 18.9466 8.65838 18.8956 8.61883 18.8449C8.579 18.7842 8.55895 18.7234 8.54907 18.6627C8.53918 18.5714 8.53918 18.4395 8.54907 18.267L8.62872 17.4355ZM6.21151 17.8918L6.27111 17.6382L6.91791 17.8106L6.75861 18.409C6.67896 18.4597 6.57954 18.4902 6.44029 18.5003C6.31093 18.5103 6.19173 18.5003 6.07226 18.4697C5.91323 18.4294 5.78387 18.3583 5.69434 18.267C5.59491 18.1657 5.53504 18.0439 5.50538 17.912C5.48533 17.77 5.48533 17.6281 5.52515 17.4861C5.56498 17.3341 5.63446 17.2022 5.73416 17.0908C5.8237 16.9892 5.9429 16.9284 6.08215 16.8982C6.19173 16.8676 6.32082 16.8777 6.46034 16.9183C6.63914 16.969 6.77839 17.0401 6.85804 17.1515C6.93769 17.2529 6.97751 17.3848 6.96762 17.5267L6.65919 17.5066C6.65919 17.4254 6.63914 17.3543 6.58943 17.2935C6.53972 17.2428 6.48012 17.1921 6.39058 17.172C6.26122 17.1415 6.15191 17.1515 6.05248 17.2123C5.95278 17.2733 5.8833 17.3949 5.83359 17.5573C5.78387 17.7398 5.79376 17.8818 5.84347 17.9932C5.90307 18.1046 5.99261 18.1758 6.11208 18.2063C6.18157 18.2264 6.24144 18.2264 6.31093 18.2264C6.38069 18.2164 6.44029 18.1962 6.49989 18.1758L6.5496 17.9831L6.21151 17.8918ZM7.7534 17.263L7.23596 17.172L6.97751 18.703L7.27578 18.7537L7.38537 18.115L7.45486 18.1251C7.52462 18.1352 7.57433 18.1556 7.60399 18.1657C7.63393 18.1858 7.6537 18.2164 7.68364 18.2469C7.69353 18.2771 7.72346 18.3278 7.7534 18.3989V17.9224C7.72346 17.9224 7.69353 17.912 7.6537 17.912L7.43508 17.8714L7.49468 17.4861L7.73335 17.5267C7.74324 17.5267 7.7534 17.5267 7.7534 17.5267V17.263Z" fill="#003399"/>
    <path fill-rule="evenodd" clip-rule="evenodd" d="M55.1611 15.3668V12.507H56.3946V7.47723L55.1611 9.99212V3.71497H60.0054L61.2389 18.1757H56.3946V15.3668H55.1611ZM55.1611 3.71497V9.99212L53.9277 12.507H55.1611V15.3668H52.8337L51.8788 18.0237H48.8746V14.7178L52.2267 7.34535H51.5404L53.4503 3.71497H55.1611ZM48.8746 8.53196L50.3767 4.9013L48.8746 4.04956V8.53196ZM36.9281 7.14264C36.9979 6.72685 36.9979 6.32114 36.9281 5.93587V7.14264ZM48.8746 4.04956V8.53196L48.6758 9.01858C45.7115 6.85872 41.3349 8.82595 41.0861 11.1076C40.8375 13.4906 42.6181 15.4175 47.1638 13.9775L45.6021 18.2365C39.604 18.916 37.2764 16.4924 36.9281 13.6631V12.061C37.0176 11.3207 37.2069 10.6005 37.4653 9.93136C40.4197 2.44745 45.2141 4.13076 47.0345 3.9888L47.3031 3.15723L48.8746 4.04956ZM48.8746 14.7178L47.3726 18.0237H48.8746V14.7178ZM31.537 17.9324C34.7498 17.2834 37.9031 13.3487 34.7399 10.2153C35.9734 9.54581 36.7391 8.33932 36.9281 7.14264V5.93587C36.7095 4.6885 35.7644 3.67437 33.9838 3.64385L31.537 3.59317V6.37182H32.5515C33.6358 6.37182 33.4966 9.23166 32.1437 9.23166H31.537V11.422C32.9992 11.7059 32.4818 13.7745 31.537 14.4135V17.9324ZM36.9281 12.061V13.6631C36.8685 13.1359 36.8685 12.5983 36.9281 12.061ZM27.2994 3.5019L25.3199 7.41647L26.2051 7.34535L23.8179 18.0237H30.6515C30.95 18.0237 31.2384 17.9932 31.537 17.9324V14.4135C31.3678 14.5353 31.1788 14.6061 30.9899 14.6061H28.5328L29.3485 11.3915H31.1887C31.3181 11.3915 31.4375 11.4016 31.537 11.422V9.23166H29.8259L30.5122 6.37182H31.537V3.59317L27.2994 3.5019Z" fill="#003399"/>
  </g>
  <defs>
    <clipPath id="clip0_1969_1561">
      <rect width="60.48" height="20.16" fill="white" transform="translate(0.759766 0.459961)"/>
    </clipPath>
  </defs>
</svg>