<svg xmlns="http://www.w3.org/2000/svg" width="62" height="24" viewBox="0 0 62 24" fill="none">
  <g clip-path="url(#clip0_1969_1555)">
    <path fill-rule="evenodd" clip-rule="evenodd" d="M21.5591 0.0209961C22.2643 0.515076 22.9816 1.26452 22.9816 1.98836V14.7464C22.9816 15.4613 22.3231 16.4722 21.7233 16.8754C23.8388 16.8754 25.9547 16.8754 28.0705 16.8754C32.1772 16.7016 34.668 15.1845 34.9657 12.0037C35.1746 9.77268 34.0225 8.03732 31.1924 7.05908C32.6043 6.50932 33.3636 5.3122 33.4331 3.66068C33.5522 0.820036 30.3215 0.0209961 28.2894 0.0209961H21.5591V0.0209961ZM25.4987 6.85236V1.533H27.4463C29.6563 1.533 30.6974 2.64244 30.6971 4.31476C30.6968 5.98708 29.2026 6.85236 27.3375 6.85236H25.4987ZM27.5749 15.2514H25.4987V8.36404H27.8516C31.3569 8.36404 32.417 10.5208 32.2291 12.2837C32.0411 14.0466 30.5607 15.2514 27.5749 15.2514ZM40.5546 0.0209961H37.1056C37.8724 0.894276 38.207 1.35316 38.207 2.70676V14.3336C38.207 15.6728 37.6269 16.4946 36.7948 17.076H41.3843C40.7028 16.6508 39.9692 15.8149 39.9692 14.3026V4.03124C42.2877 7.20052 44.6059 10.3695 46.9244 13.5388C48.2391 15.2984 49.763 16.7903 51.5398 17.9586V2.64532C51.5398 1.11188 52.1443 0.527236 52.9527 0.0209961H48.4783C49.2892 0.636676 49.7192 1.33204 49.7192 2.5842V12.8392L40.5546 0.0209961V0.0209961ZM55.4923 17.076C56.4204 16.446 56.8927 15.7064 56.8927 14.7464V2.56788C56.8927 1.12788 56.4864 0.802436 55.6899 0.0209961H60.9868C60.0727 0.547716 59.4313 1.62292 59.4313 2.56788V14.7128C59.4313 15.6447 59.9701 16.4984 60.701 17.076H55.4923Z" fill="#007697"/>
    <path fill-rule="evenodd" clip-rule="evenodd" d="M0.759766 0.0209961H5.87305C5.60598 0.490116 5.40365 1.5442 5.92058 3.91252C6.38028 6.01748 7.70934 8.21332 9.09562 9.949L7.35346 11.4127L0.759766 2.93492V0.0209961ZM8.22657 0.0209961H17.2282V2.253C16.5318 1.83668 15.2621 1.43444 13.3977 2.19764C10.3897 3.42868 10.132 7.03444 10.132 7.03444C8.46799 4.9778 7.37316 1.60532 8.22657 0.0209961V0.0209961ZM17.2282 5.21364V11.8572C15.1827 12.6514 12.3138 10.5858 11.593 8.13396C10.5482 4.57972 13.0109 3.29684 14.7727 3.64852C16.0893 3.91156 16.8539 4.71444 17.2282 5.21364ZM17.2282 12.9477V16.8732H11.7112L12.8173 15.9442C12.0955 16.0341 10.678 15.6869 9.9875 14.7992L8.04551 12.3023L9.82082 10.8108C10.9119 12.0415 11.9508 12.9256 12.5384 13.1909C13.7961 13.7586 15.213 14.0328 17.2282 12.9477ZM8.63061 16.8732H2.60387L6.35901 13.7189C6.6661 14.1141 6.96287 14.4959 7.24463 14.8581C7.79784 15.5692 8.26222 16.2716 8.63061 16.8732ZM0.852643 16.8732H0.759766V6.51988C2.1939 8.36372 4.02581 10.7192 5.66696 12.8293L0.852643 16.8732Z" fill="#EC6722"/>
    <path fill-rule="evenodd" clip-rule="evenodd" d="M57.744 21.7361L58.0533 21.6897C58.0714 21.8107 58.1171 21.9041 58.199 21.9784C58.281 22.0436 58.3904 22.0811 58.5358 22.0811C58.6725 22.0811 58.7819 22.0436 58.8545 21.9876C58.9183 21.932 58.9549 21.8574 58.9549 21.7736C58.9549 21.7083 58.9274 21.6523 58.8639 21.6059C58.8182 21.5777 58.7091 21.5406 58.5449 21.5035C58.3176 21.4382 58.1537 21.3915 58.0714 21.3448C57.9804 21.2984 57.9076 21.2424 57.8622 21.1678C57.8166 21.0932 57.7984 21.0094 57.7984 20.9163C57.7984 20.8324 57.8166 20.7486 57.8532 20.6833C57.8894 20.6088 57.9442 20.5531 58.008 20.5064C58.0533 20.4692 58.1262 20.4318 58.2081 20.4132C58.29 20.3854 58.381 20.3668 58.4724 20.3668C58.6181 20.3668 58.7454 20.3947 58.8545 20.4318C58.9636 20.4785 59.0459 20.5345 59.1006 20.6088C59.146 20.6833 59.1822 20.7768 59.2097 20.8977L58.9002 20.9441C58.882 20.8417 58.8454 20.7672 58.7819 20.7115C58.7182 20.6648 58.6181 20.6369 58.4996 20.6369C58.3538 20.6369 58.2538 20.6555 58.19 20.7022C58.1262 20.7579 58.099 20.8139 58.099 20.8792C58.099 20.9163 58.1171 20.9537 58.1356 20.9908C58.1628 21.0187 58.199 21.0468 58.2538 21.0747C58.29 21.0843 58.381 21.1121 58.5358 21.1585C58.7544 21.2145 58.9092 21.2612 58.9912 21.3076C59.0825 21.3448 59.155 21.4008 59.2007 21.4753C59.2463 21.5406 59.2732 21.6337 59.2732 21.7457C59.2732 21.8481 59.2463 21.9505 59.1822 22.0436C59.1278 22.1368 59.0368 22.2113 58.9183 22.2673C58.8092 22.314 58.6816 22.3419 58.5358 22.3419C58.29 22.3419 58.108 22.2859 57.9898 22.1835C57.8622 22.0811 57.7803 21.932 57.744 21.7361ZM60.3477 21.2052C60.5573 21.1771 60.7121 21.14 60.8212 21.1028C60.8212 21.0561 60.8212 21.0283 60.8212 21.0187C60.8212 20.8884 60.794 20.7953 60.7302 20.7393C60.6573 20.674 60.5391 20.6369 60.3753 20.6369C60.3659 20.6369 60.3568 20.6369 60.3477 20.6369C60.2201 20.6369 60.1201 20.6648 60.0563 20.7115C59.9837 20.7672 59.929 20.8606 59.9015 20.9908L59.5922 20.9537C59.6194 20.8139 59.6648 20.7115 59.7285 20.6276C59.7923 20.5438 59.8833 20.4785 60.0109 20.4411C60.111 20.404 60.2201 20.3761 60.3477 20.3761C60.3753 20.3668 60.4025 20.3668 60.4206 20.3668C60.5845 20.3668 60.7121 20.3947 60.8031 20.4318C60.9031 20.4692 60.976 20.516 61.0216 20.5716C61.067 20.6276 61.1033 20.7022 61.1214 20.786C61.1308 20.8417 61.1399 20.9441 61.1399 21.0843V21.5035C61.1399 21.8014 61.1399 21.9972 61.158 22.0718C61.1671 22.146 61.1943 22.2299 61.2399 22.2952H60.9122C60.8759 22.2299 60.8578 22.1556 60.8484 22.0622C60.7302 22.1649 60.6207 22.2395 60.5116 22.2766C60.4569 22.2952 60.4025 22.314 60.3477 22.3233C60.293 22.3323 60.2295 22.3419 60.1657 22.3419C59.9653 22.3419 59.8105 22.2859 59.7013 22.1928C59.5922 22.0904 59.5375 21.9598 59.5375 21.8014C59.5375 21.7083 59.5647 21.6244 59.6013 21.5499C59.6466 21.4753 59.6923 21.41 59.7651 21.3636C59.8286 21.3169 59.9015 21.2798 59.9837 21.2612C60.0472 21.2424 60.1382 21.2238 60.2658 21.2145C60.293 21.2052 60.3205 21.2052 60.3477 21.2052ZM60.3477 22.0811C60.4297 22.0718 60.5025 22.0436 60.5663 22.0065C60.6573 21.9598 60.7302 21.8852 60.7755 21.7921C60.8031 21.7176 60.8212 21.6059 60.8212 21.466V21.3544C60.7121 21.4008 60.5573 21.4382 60.3477 21.466C60.3387 21.466 60.3205 21.4753 60.3111 21.4753C60.1839 21.4939 60.0929 21.5124 60.0381 21.5406C59.9837 21.5592 59.9471 21.5966 59.9196 21.643C59.8833 21.6897 59.8743 21.7361 59.8743 21.7921C59.8743 21.876 59.9015 21.9505 59.9653 22.0065C60.0291 22.0622 60.1201 22.0904 60.2477 22.0904C60.2843 22.0904 60.3111 22.0904 60.3477 22.0811ZM0.859375 22.2952V19.6958H1.36911L1.97016 21.5406C2.02488 21.7083 2.07023 21.8388 2.08836 21.9227C2.12464 21.8296 2.1703 21.6897 2.22502 21.5035L2.83514 19.6958H3.29015V22.2952H2.96242V20.1243L2.22502 22.2952H1.9245L1.18711 20.0872V22.2952H0.859375ZM5.7575 22.2952V19.6958H6.07617V22.2952H5.7575ZM4.53758 21.1771H5.05639C5.03825 21.0187 5.00197 20.8977 4.93818 20.8139C4.8378 20.6929 4.71052 20.6369 4.55572 20.6369C4.54665 20.6369 4.54665 20.6369 4.53758 20.6369C4.40093 20.6369 4.28272 20.6833 4.1914 20.7768C4.09133 20.8792 4.03692 21.0094 4.02754 21.1771H4.53758ZM4.53758 22.0811C4.54665 22.0811 4.55572 22.0811 4.56479 22.0811C4.68331 22.0811 4.77431 22.0436 4.85625 21.9876C4.93818 21.9227 5.00197 21.8296 5.05639 21.6897L5.37505 21.7268C5.32032 21.9227 5.22932 22.0718 5.09297 22.1835C4.95632 22.2859 4.77431 22.3419 4.56479 22.3419C4.55572 22.3419 4.54665 22.3419 4.53758 22.3419C4.28272 22.3323 4.0732 22.2488 3.92747 22.0811C3.7636 21.9131 3.69074 21.6804 3.69074 21.3729C3.69074 21.0561 3.7636 20.8046 3.92747 20.6369C4.08226 20.46 4.29179 20.3761 4.53758 20.3668C4.54665 20.3668 4.54665 20.3668 4.54665 20.3668C4.79245 20.3668 4.99259 20.46 5.1477 20.6276C5.31157 20.7953 5.38412 21.0376 5.38412 21.3544C5.38412 21.3729 5.38412 21.4008 5.38412 21.4382H4.53758H4.0094C4.01847 21.643 4.08226 21.8014 4.18233 21.9131C4.28272 22.0158 4.40093 22.0718 4.53758 22.0811ZM8.51601 23.0222L8.47973 22.7236C8.55259 22.7425 8.60732 22.7518 8.66173 22.7518C8.72553 22.7518 8.78025 22.7425 8.8256 22.7147C8.87125 22.6958 8.89846 22.6587 8.92567 22.612C8.95319 22.5841 8.98039 22.5096 9.02605 22.379C9.02605 22.3604 9.03512 22.3323 9.05326 22.3044L8.35214 20.4132H8.68894L9.07139 21.5035C9.12612 21.643 9.17146 21.7921 9.20805 21.9412C9.24433 21.7921 9.28092 21.6523 9.33564 21.5124L9.72686 20.4132H10.0364L9.33564 22.3323C9.26278 22.5374 9.20805 22.6772 9.1624 22.7611C9.10798 22.8635 9.04419 22.938 8.97132 22.9848C8.89846 23.0408 8.81653 23.0593 8.71646 23.0593C8.65266 23.0593 8.58887 23.0497 8.51601 23.0222ZM7.25981 21.2052C7.46902 21.1771 7.62382 21.14 7.73327 21.1028C7.73327 21.0561 7.73327 21.0283 7.73327 21.0187C7.73327 20.8884 7.70575 20.7953 7.64227 20.7393C7.56002 20.674 7.44181 20.6369 7.28702 20.6369C7.27795 20.6369 7.26888 20.6369 7.25981 20.6369C7.12315 20.6369 7.03215 20.6648 6.95929 20.7115C6.89549 20.7672 6.84076 20.8606 6.80449 20.9908L6.50397 20.9537C6.53149 20.8139 6.57683 20.7115 6.64062 20.6276C6.70442 20.5438 6.79542 20.4785 6.91363 20.4411C7.01401 20.404 7.13222 20.3761 7.25981 20.3761C7.27795 20.3668 7.30515 20.3668 7.33267 20.3668C7.48716 20.3668 7.61475 20.3947 7.71513 20.4318C7.8152 20.4692 7.88775 20.516 7.93341 20.5716C7.97906 20.6276 8.01534 20.7022 8.03379 20.786C8.04255 20.8417 8.04255 20.9441 8.04255 21.0843V21.5035C8.04255 21.8014 8.05193 21.9972 8.07007 22.0718C8.07913 22.146 8.10665 22.2299 8.14293 22.2952H7.8152C7.78768 22.2299 7.76954 22.1556 7.76047 22.0622C7.64227 22.1649 7.53281 22.2395 7.42367 22.2766C7.36895 22.2952 7.31422 22.314 7.25981 22.3233C7.19601 22.3323 7.14129 22.3419 7.07749 22.3419C6.87735 22.3419 6.72256 22.2859 6.61342 22.1928C6.50397 22.0904 6.44955 21.9598 6.44955 21.8014C6.44955 21.7083 6.46769 21.6244 6.51335 21.5499C6.54962 21.4753 6.60435 21.41 6.66783 21.3636C6.74069 21.3169 6.81356 21.2798 6.89549 21.2612C6.95929 21.2424 7.05029 21.2238 7.17788 21.2145C7.20508 21.2052 7.23229 21.2052 7.25981 21.2052ZM7.25981 22.0811C7.33267 22.0718 7.40554 22.0436 7.4784 22.0065C7.5694 21.9598 7.63288 21.8852 7.67854 21.7921C7.71513 21.7176 7.73327 21.6059 7.73327 21.466V21.3544C7.62382 21.4008 7.46902 21.4382 7.25981 21.466C7.24136 21.466 7.23229 21.4753 7.22322 21.4753C7.09594 21.4939 7.00463 21.5124 6.95022 21.5406C6.89549 21.5592 6.85015 21.5966 6.82263 21.643C6.79542 21.6897 6.78635 21.7361 6.78635 21.7921C6.78635 21.876 6.81356 21.9505 6.87735 22.0065C6.94115 22.0622 7.03215 22.0904 7.15036 22.0904C7.18695 22.0904 7.22322 22.0904 7.25981 22.0811ZM16.0638 22.2952V19.6958H16.4097L17.7481 21.7361V19.6958H18.0668V22.2952H17.7209L16.3915 20.2548V22.2952H16.0638ZM14.2519 22.2952V20.4132H14.5706V22.2952H14.2519ZM14.2519 20.0686V19.6958H14.5706V20.0686H14.2519ZM12.2761 22.2952V20.4132H12.5585V20.6833C12.6952 20.4785 12.8953 20.3668 13.1502 20.3668C13.2597 20.3668 13.3597 20.3947 13.4507 20.4318C13.5417 20.4692 13.6146 20.5249 13.6602 20.5902C13.7056 20.6555 13.7422 20.7393 13.7603 20.8324C13.7694 20.8884 13.7785 20.9908 13.7785 21.14V22.2952H13.4598V21.1492C13.4598 21.0187 13.4507 20.9256 13.4232 20.8606C13.4051 20.7953 13.3597 20.7393 13.2959 20.7022C13.2324 20.6648 13.1686 20.6462 13.0773 20.6462C12.9501 20.6462 12.8315 20.6929 12.7405 20.7768C12.6405 20.8606 12.5948 21.0283 12.5948 21.2705V22.2952H12.2761ZM11.0109 21.2052C11.2201 21.1771 11.3749 21.14 11.484 21.1028C11.484 21.0561 11.484 21.0283 11.484 21.0187C11.484 20.8884 11.4568 20.7953 11.393 20.7393C11.3111 20.674 11.1929 20.6369 11.0381 20.6369C11.029 20.6369 11.0196 20.6369 11.0109 20.6369C10.8742 20.6369 10.7742 20.6648 10.7104 20.7115C10.6466 20.7672 10.5918 20.8606 10.5556 20.9908L10.255 20.9537C10.2822 20.8139 10.3279 20.7115 10.3917 20.6276C10.4555 20.5438 10.5465 20.4785 10.6647 20.4411C10.7651 20.404 10.8833 20.3761 11.0109 20.3761C11.029 20.3668 11.0562 20.3668 11.0837 20.3668C11.2382 20.3668 11.3658 20.3947 11.4659 20.4318C11.5663 20.4692 11.6391 20.516 11.6845 20.5716C11.7301 20.6276 11.7573 20.7022 11.7846 20.786C11.7936 20.8417 11.7936 20.9441 11.7936 21.0843V21.5035C11.7936 21.8014 11.803 21.9972 11.8121 22.0718C11.8302 22.146 11.8574 22.2299 11.894 22.2952H11.5663C11.5388 22.2299 11.5115 22.1556 11.5025 22.0622C11.393 22.1649 11.2839 22.2395 11.1747 22.2766C11.12 22.2952 11.0653 22.314 11.0109 22.3233C10.9471 22.3323 10.8924 22.3419 10.8289 22.3419C10.6284 22.3419 10.4736 22.2859 10.3645 22.1928C10.255 22.0904 10.2003 21.9598 10.2003 21.8014C10.2003 21.7083 10.2188 21.6244 10.2641 21.5499C10.3007 21.4753 10.3551 21.41 10.4189 21.3636C10.4918 21.3169 10.5646 21.2798 10.6466 21.2612C10.7104 21.2424 10.8014 21.2238 10.9199 21.2145C10.9562 21.2052 10.9834 21.2052 11.0109 21.2052ZM11.0109 22.0811C11.0837 22.0718 11.1566 22.0436 11.2201 22.0065C11.3202 21.9598 11.384 21.8852 11.4296 21.7921C11.4659 21.7176 11.484 21.6059 11.484 21.466V21.3544C11.3749 21.4008 11.211 21.4382 11.0109 21.466C10.9927 21.466 10.9834 21.4753 10.9743 21.4753C10.8467 21.4939 10.7557 21.5124 10.7013 21.5406C10.6466 21.5592 10.6012 21.5966 10.5737 21.643C10.5465 21.6897 10.5284 21.7361 10.5284 21.7921C10.5284 21.876 10.5646 21.9505 10.6284 22.0065C10.6922 22.0622 10.7832 22.0904 10.9014 22.0904C10.938 22.0904 10.9743 22.0904 11.0109 22.0811ZM19.3411 21.1771H19.8602C19.8421 21.0187 19.8055 20.8977 19.742 20.8139C19.6416 20.6929 19.5144 20.6369 19.3505 20.6369C19.3505 20.6369 19.3505 20.6369 19.3411 20.6369C19.2048 20.6369 19.0862 20.6833 18.9952 20.7768C18.8952 20.8792 18.8404 21.0094 18.8314 21.1771H19.3411ZM19.3411 22.0811C19.3505 22.0811 19.3596 22.0811 19.3686 22.0811C19.4868 22.0811 19.5782 22.0436 19.6601 21.9876C19.742 21.9227 19.8055 21.8296 19.8512 21.6897L20.1789 21.7268C20.1242 21.9227 20.0332 22.0718 19.8965 22.1835C19.7602 22.2859 19.5782 22.3419 19.3686 22.3419C19.3596 22.3419 19.3505 22.3419 19.3411 22.3419C19.0862 22.3323 18.877 22.2488 18.7222 22.0811C18.5674 21.9131 18.4855 21.6804 18.4855 21.3729C18.4855 21.0561 18.5674 20.8046 18.7313 20.6369C18.8861 20.46 19.0956 20.3761 19.3411 20.3668H19.3505C19.5963 20.3668 19.7967 20.46 19.9512 20.6276C20.106 20.7953 20.188 21.0376 20.188 21.3544C20.188 21.3729 20.188 21.4008 20.188 21.4382H19.3411H18.8132C18.8223 21.643 18.877 21.8014 18.9862 21.9131C19.0775 22.0158 19.2048 22.0718 19.3411 22.0811ZM21.2715 22.0344C21.4173 22.0344 21.5355 21.9784 21.6355 21.8667C21.7359 21.755 21.7813 21.5777 21.7813 21.3358C21.7813 21.1028 21.7265 20.9256 21.6265 20.8139C21.5355 20.6929 21.4173 20.6369 21.2715 20.6369C21.1258 20.6369 21.0167 20.6929 20.9163 20.8046C20.8162 20.9256 20.7709 21.0932 20.7709 21.3262C20.7709 21.5684 20.8162 21.7457 20.9163 21.8667C21.0073 21.9784 21.1258 22.0344 21.2715 22.0344ZM21.2715 22.7982C21.3988 22.7889 21.4992 22.7611 21.5721 22.7051C21.6537 22.6491 21.6993 22.5656 21.7359 22.4628C21.745 22.3976 21.7541 22.258 21.7541 22.0532C21.6265 22.2113 21.4626 22.2859 21.2715 22.2952C21.2625 22.2952 21.2534 22.2952 21.244 22.2952C20.9891 22.2952 20.7981 22.202 20.6523 22.0158C20.516 21.8296 20.4519 21.6059 20.4519 21.3448C20.4519 21.1678 20.4794 21.0001 20.5429 20.851C20.607 20.6929 20.698 20.5809 20.8162 20.4971C20.9438 20.4132 21.0801 20.3668 21.244 20.3668C21.2534 20.3668 21.2625 20.3668 21.2715 20.3668C21.4811 20.3761 21.6449 20.4692 21.7813 20.6369V20.4132H22.0727V22.0436C22.0727 22.3323 22.0452 22.5467 21.9817 22.668C21.927 22.7889 21.836 22.882 21.7084 22.9566C21.5902 23.0222 21.4445 23.0593 21.2715 23.0593C21.2625 23.0593 21.2534 23.0593 21.2349 23.0593C21.0167 23.0593 20.8434 23.0126 20.7071 22.9102C20.5704 22.8075 20.5066 22.6587 20.5066 22.4536L20.8162 22.5003C20.8253 22.5934 20.8619 22.668 20.9163 22.7051C20.9985 22.7704 21.1077 22.7982 21.2349 22.7982C21.2534 22.7982 21.2625 22.7982 21.2715 22.7982ZM28.4913 22.2952V19.6958H28.8281V20.9908L30.0846 19.6958H30.5399L29.4745 20.7486L30.5853 22.2952H30.1484L29.2378 20.9816L28.8281 21.4008V22.2952H28.4913ZM26.5703 22.2952V21.932H26.9252V22.2952C26.9252 22.435 26.9071 22.5374 26.8523 22.6216C26.807 22.7051 26.7341 22.7704 26.634 22.8075L26.5521 22.6772C26.6159 22.6491 26.6613 22.6027 26.6978 22.5467C26.725 22.491 26.7432 22.4068 26.7432 22.2952H26.5703ZM25.7053 22.2952V20.4132H26.0149V22.2952H25.7053ZM25.7053 20.0686V19.6958H26.0149V20.0686H25.7053ZM24.5126 22.2952V20.4132H24.7949V20.7022C24.8678 20.5624 24.9313 20.4785 24.9951 20.4318C25.0498 20.3947 25.1227 20.3668 25.1955 20.3668C25.2956 20.3668 25.4047 20.404 25.5142 20.4692L25.4047 20.7672C25.3319 20.7208 25.2503 20.7022 25.1774 20.7022C25.1136 20.7022 25.0498 20.7208 24.9951 20.7672C24.9407 20.8046 24.9041 20.8606 24.8769 20.9352C24.8406 21.0561 24.8221 21.1771 24.8221 21.3076V22.2952H24.5126ZM23.2926 21.1771H23.8024C23.7933 21.0187 23.757 20.8977 23.6932 20.8139C23.5932 20.6929 23.4565 20.6369 23.3017 20.6369H23.2926C23.156 20.6369 23.0378 20.6833 22.9377 20.7768C22.8467 20.8792 22.792 21.0094 22.7829 21.1771H23.2926ZM23.2926 22.0811C23.3017 22.0811 23.3108 22.0811 23.3198 22.0811C23.4293 22.0811 23.5294 22.0436 23.6113 21.9876C23.6932 21.9227 23.757 21.8296 23.8024 21.6897L24.1213 21.7268C24.0757 21.9227 23.9847 22.0718 23.839 22.1835C23.7023 22.2859 23.5294 22.3419 23.3198 22.3419C23.3108 22.3419 23.3017 22.3419 23.2926 22.3419C23.0378 22.3323 22.8282 22.2488 22.6735 22.0811C22.5187 21.9131 22.4367 21.6804 22.4367 21.3729C22.4367 21.0561 22.5187 20.8046 22.6828 20.6369C22.8373 20.46 23.0378 20.3761 23.2926 20.3668C23.2926 20.3668 23.2926 20.3668 23.3017 20.3668C23.5475 20.3668 23.748 20.46 23.9028 20.6276C24.0575 20.7953 24.1395 21.0376 24.1395 21.3544C24.1395 21.3729 24.1395 21.4008 24.1301 21.4382H23.2926H22.7645C22.7738 21.643 22.8282 21.8014 22.9377 21.9131C23.0287 22.0158 23.1469 22.0718 23.2926 22.0811ZM31.5685 21.1771H32.0876C32.0694 21.0187 32.0328 20.8977 31.969 20.8139C31.869 20.6929 31.7417 20.6369 31.5778 20.6369C31.5778 20.6369 31.5778 20.6369 31.5685 20.6369C31.4321 20.6369 31.3136 20.6833 31.2226 20.7768C31.1225 20.8792 31.0678 21.0094 31.0587 21.1771H31.5685ZM31.5685 22.0811C31.5778 22.0811 31.5869 22.0811 31.596 22.0811C31.7051 22.0811 31.8052 22.0436 31.8871 21.9876C31.969 21.9227 32.0328 21.8296 32.0785 21.6897L32.4062 21.7268C32.3515 21.9227 32.2605 22.0718 32.1238 22.1835C31.9784 22.2859 31.8052 22.3419 31.596 22.3419C31.5869 22.3419 31.5778 22.3419 31.5685 22.3419C31.3136 22.3323 31.1044 22.2488 30.9586 22.0811C30.8039 21.9131 30.7219 21.6804 30.7219 21.3729C30.7219 21.0561 30.8039 20.8046 30.9677 20.6369C31.1134 20.46 31.3227 20.3761 31.5685 20.3668H31.5778C31.8236 20.3668 32.0238 20.46 32.1786 20.6276C32.3334 20.7953 32.4153 21.0376 32.4153 21.3544C32.4153 21.3729 32.4153 21.4008 32.4153 21.4382H31.5685H31.0497C31.0497 21.643 31.1044 21.8014 31.2135 21.9131C31.3045 22.0158 31.423 22.0718 31.5685 22.0811ZM33.5717 20.3761C33.5899 20.3668 33.5989 20.3668 33.608 20.3668C33.7262 20.3668 33.8266 20.3947 33.9357 20.4411C34.0358 20.4878 34.1177 20.5531 34.1815 20.6369C34.2453 20.7208 34.3001 20.8232 34.3363 20.9441C34.3726 21.0654 34.3911 21.196 34.3911 21.3262C34.3911 21.6523 34.3091 21.9041 34.1543 22.0718C33.9995 22.2488 33.8081 22.3419 33.5899 22.3419C33.5899 22.3419 33.5808 22.3419 33.5717 22.3419C33.3713 22.3323 33.2074 22.2395 33.0798 22.0622V22.2952H32.7978V19.6958H33.1073V20.6276C33.2256 20.4692 33.3894 20.3761 33.5717 20.3761ZM33.5717 22.0811C33.7081 22.0718 33.8266 22.0158 33.9176 21.8945C34.0177 21.7736 34.0724 21.5966 34.0724 21.3544C34.0724 21.1121 34.0267 20.9256 33.9267 20.8139C33.8357 20.6929 33.7171 20.6369 33.5808 20.6369C33.5808 20.6369 33.5808 20.6369 33.5717 20.6369C33.4441 20.6369 33.3256 20.6929 33.2256 20.8139C33.1255 20.9352 33.0798 21.1121 33.0798 21.3448C33.0798 21.5684 33.1073 21.7268 33.1708 21.8296C33.2712 21.9972 33.3985 22.0811 33.5717 22.0811ZM36.749 22.2952V20.4132H37.022V20.6833C37.1586 20.4785 37.3591 20.3668 37.6139 20.3668C37.7231 20.3668 37.8235 20.3947 37.9145 20.4318C38.0145 20.4692 38.0783 20.5249 38.124 20.5902C38.1693 20.6555 38.2056 20.7393 38.2241 20.8324C38.2331 20.8884 38.2422 20.9908 38.2422 21.14V22.2952H37.9326V21.1492C37.9326 21.0187 37.9145 20.9256 37.896 20.8606C37.8688 20.7953 37.8235 20.7393 37.7597 20.7022C37.7049 20.6648 37.6321 20.6462 37.5411 20.6462C37.4135 20.6462 37.2953 20.6929 37.2043 20.7768C37.1042 20.8606 37.0586 21.0283 37.0586 21.2705V22.2952H36.749ZM35.4743 21.2052C35.6838 21.1771 35.8386 21.14 35.9478 21.1028C35.9478 21.0561 35.9478 21.0283 35.9478 21.0187C35.9478 20.8884 35.9206 20.7953 35.8568 20.7393C35.7748 20.674 35.6563 20.6369 35.5018 20.6369C35.4925 20.6369 35.4837 20.6369 35.4743 20.6369C35.338 20.6369 35.2467 20.6648 35.1738 20.7115C35.1103 20.7672 35.0556 20.8606 35.0193 20.9908L34.7188 20.9537C34.746 20.8139 34.7917 20.7115 34.8551 20.6276C34.9189 20.5438 35.0099 20.4785 35.1285 20.4411C35.2285 20.404 35.347 20.3761 35.4743 20.3761C35.4925 20.3668 35.52 20.3668 35.5472 20.3668C35.702 20.3668 35.8296 20.3947 35.9296 20.4318C36.0297 20.4692 36.1026 20.516 36.1482 20.5716C36.1936 20.6276 36.2302 20.7022 36.2483 20.786C36.2574 20.8417 36.2574 20.9441 36.2574 21.0843V21.5035C36.2574 21.8014 36.2664 21.9972 36.2846 22.0718C36.294 22.146 36.3212 22.2299 36.3574 22.2952H36.0297C36.0025 22.2299 35.9844 22.1556 35.9753 22.0622C35.8568 22.1649 35.7473 22.2395 35.6382 22.2766C35.5838 22.2952 35.529 22.314 35.4743 22.3233C35.4105 22.3323 35.3561 22.3419 35.2923 22.3419C35.0922 22.3419 34.9371 22.2859 34.8279 22.1928C34.7188 22.0904 34.6641 21.9598 34.6641 21.8014C34.6641 21.7083 34.6825 21.6244 34.7279 21.5499C34.7641 21.4753 34.8189 21.41 34.8827 21.3636C34.9555 21.3169 35.0284 21.2798 35.1103 21.2612C35.1738 21.2424 35.2651 21.2238 35.3924 21.2145C35.4199 21.2052 35.4471 21.2052 35.4743 21.2052ZM35.4743 22.0811C35.5472 22.0718 35.62 22.0436 35.6838 22.0065C35.7839 21.9598 35.8477 21.8852 35.8931 21.7921C35.9296 21.7176 35.9478 21.6059 35.9478 21.466V21.3544C35.8386 21.4008 35.6748 21.4382 35.4743 21.466C35.4562 21.466 35.4471 21.4753 35.438 21.4753C35.3105 21.4939 35.2195 21.5124 35.165 21.5406C35.1103 21.5592 35.0647 21.5966 35.0374 21.643C35.0099 21.6897 35.0012 21.7361 35.0012 21.7921C35.0012 21.876 35.0284 21.9505 35.0922 22.0065C35.1557 22.0622 35.2467 22.0904 35.3652 22.0904C35.4015 22.0904 35.438 22.0904 35.4743 22.0811ZM39.4258 22.0344C39.5713 22.0344 39.6898 21.9784 39.7808 21.8667C39.8812 21.755 39.9265 21.5777 39.9265 21.3358C39.9265 21.1028 39.8812 20.9256 39.7808 20.8139C39.6807 20.6929 39.5622 20.6369 39.4258 20.6369C39.4258 20.6369 39.4258 20.6369 39.4168 20.6369C39.2801 20.6369 39.1616 20.6929 39.0615 20.8046C38.9705 20.9256 38.9158 21.0932 38.9158 21.3262C38.9158 21.5684 38.9705 21.7457 39.0615 21.8667C39.1616 21.9784 39.2801 22.0344 39.4258 22.0344ZM39.4258 22.7982C39.5531 22.7889 39.6532 22.7611 39.7261 22.7051C39.7989 22.6491 39.8536 22.5656 39.8812 22.4628C39.8993 22.3976 39.9084 22.258 39.9084 22.0532C39.7717 22.2113 39.6169 22.2859 39.4258 22.2952C39.4168 22.2952 39.4074 22.2952 39.3983 22.2952C39.1435 22.2952 38.9433 22.202 38.8067 22.0158C38.67 21.8296 38.5971 21.6059 38.5971 21.3448C38.5971 21.1678 38.6337 21.0001 38.6975 20.851C38.761 20.6929 38.852 20.5809 38.9705 20.4971C39.0887 20.4132 39.2345 20.3668 39.3983 20.3668C39.4074 20.3668 39.4168 20.3668 39.4258 20.3668C39.626 20.3761 39.7989 20.4692 39.9356 20.6369V20.4132H40.227V22.0436C40.227 22.3323 40.1904 22.5467 40.136 22.668C40.0722 22.7889 39.9812 22.882 39.8536 22.9566C39.7354 23.0222 39.5988 23.0593 39.4258 23.0593C39.4168 23.0593 39.3983 23.0593 39.3893 23.0593C39.1707 23.0593 38.9887 23.0126 38.8614 22.9102C38.7247 22.8075 38.6609 22.6587 38.6609 22.4536L38.9615 22.5003C38.9796 22.5934 39.0159 22.668 39.0706 22.7051C39.1525 22.7704 39.2529 22.7982 39.3893 22.7982C39.3983 22.7982 39.4168 22.7982 39.4258 22.7982ZM41.4013 22.0344C41.547 22.0344 41.6652 21.9784 41.7565 21.8667C41.8566 21.755 41.9023 21.5777 41.9023 21.3358C41.9023 21.1028 41.8566 20.9256 41.7565 20.8139C41.6565 20.6929 41.538 20.6369 41.4013 20.6369H41.3922C41.2556 20.6369 41.1374 20.6929 41.0373 20.8046C40.946 20.9256 40.8916 21.0932 40.8916 21.3262C40.8916 21.5684 40.946 21.7457 41.0373 21.8667C41.1374 21.9784 41.2556 22.0344 41.4013 22.0344ZM41.4013 22.7982C41.5289 22.7889 41.629 22.7611 41.7018 22.7051C41.7747 22.6491 41.8294 22.5656 41.8566 22.4628C41.8748 22.3976 41.8838 22.258 41.8838 22.0532C41.7475 22.2113 41.5924 22.2859 41.4013 22.2952C41.3922 22.2952 41.3832 22.2952 41.3741 22.2952C41.1192 22.2952 40.9188 22.202 40.7824 22.0158C40.6458 21.8296 40.5729 21.6059 40.5729 21.3448C40.5729 21.1678 40.6092 21.0001 40.673 20.851C40.7368 20.6929 40.8278 20.5809 40.946 20.4971C41.0645 20.4132 41.2102 20.3668 41.3741 20.3668C41.3832 20.3668 41.3922 20.3668 41.4013 20.3668C41.6017 20.3761 41.7747 20.4692 41.9113 20.6369V20.4132H42.1934V22.0436C42.1934 22.3323 42.1662 22.5467 42.1115 22.668C42.0477 22.7889 41.9567 22.882 41.8294 22.9566C41.7109 23.0222 41.5655 23.0593 41.4013 23.0593C41.3922 23.0593 41.3741 23.0593 41.365 23.0593C41.1464 23.0593 40.9644 23.0126 40.8368 22.9102C40.7005 22.8075 40.6276 22.6587 40.6367 22.4536L40.9372 22.5003C40.9554 22.5934 40.9916 22.668 41.0464 22.7051C41.1192 22.7704 41.2284 22.7982 41.365 22.7982C41.3741 22.7982 41.3922 22.7982 41.4013 22.7982ZM43.368 21.2052C43.5775 21.1771 43.7411 21.14 43.8414 21.1028C43.8414 21.0561 43.8414 21.0283 43.8414 21.0187C43.8414 20.8884 43.8139 20.7953 43.7595 20.7393C43.6776 20.674 43.5591 20.6369 43.4043 20.6369C43.3952 20.6369 43.3771 20.6369 43.368 20.6369C43.2404 20.6369 43.1403 20.6648 43.0765 20.7115C43.0037 20.7672 42.9583 20.8606 42.9217 20.9908L42.6121 20.9537C42.6487 20.8139 42.6944 20.7115 42.7488 20.6276C42.8126 20.5438 42.9127 20.4785 43.0312 20.4411C43.1313 20.404 43.2404 20.3761 43.368 20.3761C43.3952 20.3668 43.4224 20.3668 43.4499 20.3668C43.6047 20.3668 43.7323 20.3947 43.8324 20.4318C43.9324 20.4692 43.9959 20.516 44.0507 20.5716C44.0963 20.6276 44.1235 20.7022 44.1417 20.786C44.151 20.8417 44.1601 20.9441 44.1601 21.0843V21.5035C44.1601 21.8014 44.1692 21.9972 44.1782 22.0718C44.1964 22.146 44.2145 22.2299 44.2602 22.2952H43.9324C43.8962 22.2299 43.878 22.1556 43.8687 22.0622C43.7504 22.1649 43.641 22.2395 43.5319 22.2766C43.4865 22.2952 43.4224 22.314 43.368 22.3233C43.3133 22.3323 43.2498 22.3419 43.1951 22.3419C42.9855 22.3419 42.8307 22.2859 42.7216 22.1928C42.6212 22.0904 42.5668 21.9598 42.5668 21.8014C42.5668 21.7083 42.5849 21.6244 42.6212 21.5499C42.6669 21.4753 42.7216 21.41 42.7854 21.3636C42.8489 21.3169 42.9311 21.2798 43.0127 21.2612C43.0675 21.2424 43.1675 21.2238 43.2861 21.2145C43.3133 21.2052 43.3408 21.2052 43.368 21.2052ZM43.368 22.0811C43.4499 22.0718 43.5228 22.0436 43.5866 22.0065C43.6776 21.9598 43.7504 21.8852 43.7958 21.7921C43.8233 21.7176 43.8414 21.6059 43.8414 21.466V21.3544C43.7323 21.4008 43.5775 21.4382 43.368 21.466C43.3589 21.466 43.3495 21.4753 43.3314 21.4753C43.2041 21.4939 43.1131 21.5124 43.0584 21.5406C43.0127 21.5592 42.9674 21.5966 42.9399 21.643C42.9127 21.6897 42.8945 21.7361 42.8945 21.7921C42.8945 21.876 42.9311 21.9505 42.9946 22.0065C43.0493 22.0622 43.1494 22.0904 43.2679 22.0904C43.3042 22.0904 43.3408 22.0904 43.368 22.0811ZM46.6181 22.2952V20.4132H46.9005V20.6833C47.0371 20.4785 47.2282 20.3668 47.4834 20.3668C47.5925 20.3668 47.7017 20.3947 47.7927 20.4318C47.8837 20.4692 47.9565 20.5249 48.0022 20.5902C48.0475 20.6555 48.075 20.7393 48.0932 20.8324C48.1113 20.8884 48.1113 20.9908 48.1113 21.14V22.2952H47.8017V21.1492C47.8017 21.0187 47.7927 20.9256 47.7655 20.8606C47.7382 20.7953 47.7017 20.7393 47.6379 20.7022C47.5744 20.6648 47.5015 20.6462 47.4193 20.6462C47.2829 20.6462 47.1735 20.6929 47.0734 20.7768C46.9733 20.8606 46.928 21.0283 46.928 21.2705V22.2952H46.6181ZM45.3438 21.2052C45.553 21.1771 45.7168 21.14 45.8172 21.1028C45.8172 21.0561 45.8172 21.0283 45.8172 21.0187C45.8172 20.8884 45.7897 20.7953 45.735 20.7393C45.6533 20.674 45.5348 20.6369 45.38 20.6369C45.3619 20.6369 45.3528 20.6369 45.3438 20.6369C45.2162 20.6369 45.1161 20.6648 45.0523 20.7115C44.9794 20.7672 44.9341 20.8606 44.8975 20.9908L44.5879 20.9537C44.6154 20.8139 44.6608 20.7115 44.7246 20.6276C44.7884 20.5438 44.8884 20.4785 45.007 20.4411C45.1067 20.404 45.2162 20.3761 45.3438 20.3761C45.371 20.3668 45.3982 20.3668 45.4257 20.3668C45.5805 20.3668 45.7078 20.3947 45.8078 20.4318C45.8988 20.4692 45.9717 20.516 46.0173 20.5716C46.0721 20.6276 46.0993 20.7022 46.1174 20.786C46.1265 20.8417 46.1359 20.9441 46.1359 21.0843V21.5035C46.1359 21.8014 46.1446 21.9972 46.154 22.0718C46.1631 22.146 46.1903 22.2299 46.2359 22.2952H45.9082C45.8716 22.2299 45.8535 22.1556 45.8444 22.0622C45.7262 22.1649 45.6168 22.2395 45.5076 22.2766C45.4529 22.2952 45.3982 22.314 45.3438 22.3233C45.289 22.3323 45.2252 22.3419 45.1708 22.3419C44.9613 22.3419 44.8065 22.2859 44.697 22.1928C44.5879 22.0904 44.5332 21.9598 44.5332 21.8014C44.5332 21.7083 44.5607 21.6244 44.597 21.5499C44.6426 21.4753 44.697 21.41 44.7608 21.3636C44.8246 21.3169 44.8975 21.2798 44.9885 21.2612C45.0432 21.2424 45.1342 21.2238 45.2618 21.2145C45.289 21.2052 45.3162 21.2052 45.3438 21.2052ZM45.3438 22.0811C45.4257 22.0718 45.4982 22.0436 45.562 22.0065C45.6533 21.9598 45.7262 21.8852 45.7716 21.7921C45.7988 21.7176 45.8172 21.6059 45.8172 21.466V21.3544C45.7078 21.4008 45.553 21.4382 45.3438 21.466C45.3347 21.466 45.3253 21.4753 45.3072 21.4753C45.1796 21.4939 45.0886 21.5124 45.0342 21.5406C44.9794 21.5592 44.9428 21.5966 44.9156 21.643C44.8884 21.6897 44.8703 21.7361 44.8703 21.7921C44.8703 21.876 44.9066 21.9505 44.9613 22.0065C45.0251 22.0622 45.1161 22.0904 45.2434 22.0904C45.28 22.0904 45.3072 22.0904 45.3438 22.0811ZM50.5058 19.6958H50.5605C50.7516 19.6958 50.9064 19.724 51.0246 19.7796C51.1431 19.8264 51.2341 19.9102 51.2979 20.0219C51.3708 20.1243 51.398 20.2456 51.398 20.3668C51.398 20.4692 51.3708 20.5809 51.3161 20.674C51.2523 20.7768 51.1613 20.851 51.0431 20.9163C51.1979 20.963 51.3161 21.0376 51.398 21.1492C51.4803 21.2612 51.5256 21.3915 51.5256 21.5406C51.5256 21.6616 51.4984 21.7828 51.4527 21.8852C51.398 21.9876 51.3342 22.0718 51.2617 22.1275C51.1888 22.1835 51.0975 22.2206 50.9883 22.258C50.8701 22.2859 50.7335 22.2952 50.5696 22.2952H50.5058H49.6046V19.6958H50.5058ZM50.5058 20.786C50.6425 20.786 50.7516 20.7768 50.8154 20.7579C50.8973 20.73 50.9611 20.6929 51.0065 20.6276C51.0521 20.5716 51.0703 20.4971 51.0703 20.404C51.0703 20.3201 51.0521 20.2363 51.0065 20.171C50.9702 20.1057 50.9064 20.0686 50.8335 20.0404C50.7698 20.0219 50.6606 20.0033 50.5058 20.0033C50.4877 20.0033 50.4692 20.0033 50.4511 20.0033H49.9414V20.786H50.4877C50.4967 20.786 50.4967 20.786 50.5058 20.786ZM50.5058 21.9876H50.5696C50.6788 21.9876 50.7607 21.9876 50.8063 21.9784C50.8792 21.9598 50.943 21.9412 50.9974 21.9041C51.0521 21.876 51.0887 21.8296 51.125 21.7643C51.1613 21.699 51.1797 21.6244 51.1797 21.5406C51.1797 21.4475 51.1522 21.3636 51.1069 21.2891C51.0521 21.2145 50.9883 21.1678 50.8973 21.14C50.8154 21.1121 50.6878 21.0932 50.5333 21.0932H50.5058H49.9414V21.9876H50.5058ZM53.9201 22.2952V20.4132H54.2022V20.6833C54.3388 20.4785 54.5302 20.3668 54.7851 20.3668C54.9033 20.3668 55.0034 20.3947 55.0944 20.4318C55.1857 20.4692 55.2582 20.5249 55.3039 20.5902C55.3495 20.6555 55.3858 20.7393 55.4039 20.8324C55.413 20.8884 55.4221 20.9908 55.4221 21.14V22.2952H55.1037V21.1492C55.1037 21.0187 55.0944 20.9256 55.0671 20.8606C55.049 20.7953 55.0034 20.7393 54.9396 20.7022C54.8761 20.6648 54.8032 20.6462 54.7213 20.6462C54.5937 20.6462 54.4755 20.6929 54.3751 20.7768C54.2841 20.8606 54.2297 21.0283 54.2297 21.2705V22.2952H53.9201ZM52.6454 21.2052C52.8547 21.1771 53.0185 21.14 53.1189 21.1028C53.128 21.0561 53.128 21.0283 53.128 21.0187C53.128 20.8884 53.0914 20.7953 53.037 20.7393C52.955 20.674 52.8365 20.6369 52.682 20.6369C52.6727 20.6369 52.6545 20.6369 52.6454 20.6369C52.5179 20.6369 52.4178 20.6648 52.354 20.7115C52.2811 20.7672 52.2358 20.8606 52.1992 20.9908L51.8987 20.9537C51.9262 20.8139 51.9715 20.7115 52.0353 20.6276C52.0991 20.5438 52.1901 20.4785 52.3086 20.4411C52.4087 20.404 52.5179 20.3761 52.6454 20.3761C52.6727 20.3668 52.7002 20.3668 52.7274 20.3668C52.8822 20.3668 53.0095 20.3947 53.1098 20.4318C53.2099 20.4692 53.2828 20.516 53.3284 20.5716C53.3738 20.6276 53.401 20.7022 53.4194 20.786C53.4282 20.8417 53.4376 20.9441 53.4376 21.0843V21.5035C53.4376 21.8014 53.4466 21.9972 53.4557 22.0718C53.4738 22.146 53.501 22.2299 53.5376 22.2952H53.2099C53.1827 22.2299 53.1552 22.1556 53.1461 22.0622C53.037 22.1649 52.9184 22.2395 52.8184 22.2766C52.7637 22.2952 52.7089 22.314 52.6454 22.3233C52.5907 22.3323 52.5269 22.3419 52.4725 22.3419C52.2721 22.3419 52.1173 22.2859 52.0081 22.1928C51.8987 22.0904 51.8443 21.9598 51.8443 21.8014C51.8443 21.7083 51.8624 21.6244 51.8987 21.5499C51.9443 21.4753 51.9991 21.41 52.0625 21.3636C52.1266 21.3169 52.2083 21.2798 52.2905 21.2612C52.3449 21.2424 52.445 21.2238 52.5635 21.2145C52.5907 21.2052 52.6179 21.2052 52.6454 21.2052ZM52.6454 22.0811C52.7274 22.0718 52.7999 22.0436 52.864 22.0065C52.955 21.9598 53.0279 21.8852 53.0732 21.7921C53.1098 21.7176 53.1189 21.6059 53.1189 21.466V21.3544C53.0185 21.4008 52.8547 21.4382 52.6454 21.466C52.6364 21.466 52.6273 21.4753 52.6092 21.4753C52.4816 21.4939 52.3906 21.5124 52.3449 21.5406C52.2905 21.5592 52.2449 21.5966 52.2176 21.643C52.1901 21.6897 52.172 21.7361 52.172 21.7921C52.172 21.876 52.2083 21.9505 52.2721 22.0065C52.3268 22.0622 52.4269 22.0904 52.5454 22.0904C52.5816 22.0904 52.6179 22.0904 52.6454 22.0811ZM56.6057 22.0344C56.7424 22.0344 56.8697 21.9784 56.961 21.8667C57.0611 21.755 57.1067 21.5777 57.1067 21.3358C57.1067 21.1028 57.0611 20.9256 56.961 20.8139C56.8609 20.6929 56.7424 20.6369 56.6057 20.6369C56.5967 20.6369 56.5967 20.6369 56.5967 20.6369C56.46 20.6369 56.3418 20.6929 56.2417 20.8046C56.1413 20.9256 56.096 21.0932 56.096 21.3262C56.096 21.5684 56.1413 21.7457 56.2417 21.8667C56.3418 21.9784 56.46 22.0344 56.6057 22.0344ZM56.6057 22.7982C56.7333 22.7889 56.8243 22.7611 56.8972 22.7051C56.9791 22.6491 57.0338 22.5656 57.061 22.4628C57.0792 22.3976 57.0792 22.258 57.0792 22.0532C56.9519 22.2113 56.7971 22.2859 56.6057 22.2952C56.5967 22.2952 56.5785 22.2952 56.5695 22.2952C56.3146 22.2952 56.1232 22.202 55.9869 22.0158C55.8502 21.8296 55.7773 21.6059 55.7773 21.3448C55.7773 21.1678 55.8045 21.0001 55.8683 20.851C55.9321 20.6929 56.0322 20.5809 56.1504 20.4971C56.2689 20.4132 56.4147 20.3668 56.5785 20.3668C56.5876 20.3668 56.5967 20.3668 56.6057 20.3668C56.8062 20.3761 56.9791 20.4692 57.1158 20.6369V20.4132H57.3978V22.0436C57.3978 22.3323 57.3706 22.5467 57.3159 22.668C57.2521 22.7889 57.1611 22.882 57.0338 22.9566C56.9153 23.0222 56.7696 23.0593 56.6057 23.0593C56.5876 23.0593 56.5785 23.0593 56.5695 23.0593C56.3509 23.0593 56.1689 23.0126 56.0322 22.9102C55.8959 22.8075 55.8321 22.6587 55.8411 22.4536L56.1413 22.5003C56.1598 22.5934 56.187 22.668 56.2508 22.7051C56.3237 22.7704 56.4328 22.7982 56.5695 22.7982C56.5785 22.7982 56.5876 22.7982 56.6057 22.7982Z" fill="#007697"/>
  </g>
  <defs>
    <clipPath id="clip0_1969_1555">
      <rect width="60.48" height="23.04" fill="white" transform="translate(0.759766 0.0200195)"/>
    </clipPath>
  </defs>
</svg>