<svg xmlns="http://www.w3.org/2000/svg" width="30" height="30" viewBox="0 0 30 30" fill="none">
    <path d="M23.75 25C23.75 26.3875 22.6375 27.5 21.25 27.5C20.587 27.5 19.9511 27.2366 19.4822 26.7678C19.0134 26.2989 18.75 25.663 18.75 25C18.75 23.6125 19.8625 22.5 21.25 22.5C21.913 22.5 22.5489 22.7634 23.0178 23.2322C23.4866 23.7011 23.75 24.337 23.75 25ZM8.75 22.5C7.3625 22.5 6.25 23.6125 6.25 25C6.25 25.663 6.51339 26.2989 6.98223 26.7678C7.45107 27.2366 8.08696 27.5 8.75 27.5C10.1375 27.5 11.25 26.3875 11.25 25C11.25 23.6125 10.1375 22.5 8.75 22.5ZM9 18.2875L8.9625 18.4375C8.9625 18.6125 9.1 18.75 9.275 18.75H23.75V21.25H8.75C8.08696 21.25 7.45107 20.9866 6.98223 20.5178C6.51339 20.0489 6.25 19.413 6.25 18.75C6.25 18.3125 6.3625 17.9 6.55 17.55L8.25 14.4875L3.75 5H1.25V2.5H5.3375L6.5125 5H25C25.6875 5 26.25 5.5625 26.25 6.25C26.25 6.4625 26.1875 6.675 26.1 6.875L21.625 14.9625C21.2 15.725 20.375 16.25 19.4375 16.25H10.125L9 18.2875ZM10.625 13.75H12.5V11.25H9.45L10.625 13.75ZM13.75 11.25V13.75H17.5V11.25H13.75ZM17.5 10V7.5H13.75V10H17.5ZM21.3875 11.25H18.75V13.75H20L21.3875 11.25ZM23.475 7.5H18.75V10H22.0875L23.475 7.5ZM7.675 7.5L8.85 10H12.5V7.5H7.675Z" fill="currentColor"/>
</svg>