<svg xmlns="http://www.w3.org/2000/svg" width="59" height="60" viewBox="0 0 59 60" fill="none">
  <path d="M19.1748 5.4165H39.8248C47.6915 5.4165 54.0832 11.8082 54.0832 19.6748V40.3248C54.0832 44.1064 52.581 47.733 49.907 50.407C47.233 53.081 43.6064 54.5832 39.8248 54.5832H19.1748C11.3082 54.5832 4.9165 48.1915 4.9165 40.3248V19.6748C4.9165 15.8933 6.41872 12.2666 9.09267 9.59267C11.7666 6.91872 15.3933 5.4165 19.1748 5.4165ZM18.6832 10.3332C16.336 10.3332 14.085 11.2656 12.4253 12.9253C10.7656 14.585 9.83317 16.836 9.83317 19.1832V40.8165C9.83317 45.7086 13.7911 49.6665 18.6832 49.6665H40.3165C42.6637 49.6665 44.9147 48.7341 46.5744 47.0744C48.2341 45.4147 49.1665 43.1637 49.1665 40.8165V19.1832C49.1665 14.2911 45.2086 10.3332 40.3165 10.3332H18.6832ZM42.4061 14.0207C43.2211 14.0207 44.0027 14.3444 44.579 14.9207C45.1553 15.497 45.479 16.2786 45.479 17.0936C45.479 17.9086 45.1553 18.6902 44.579 19.2665C44.0027 19.8428 43.2211 20.1665 42.4061 20.1665C41.5911 20.1665 40.8095 19.8428 40.2332 19.2665C39.6569 18.6902 39.3332 17.9086 39.3332 17.0936C39.3332 16.2786 39.6569 15.497 40.2332 14.9207C40.8095 14.3444 41.5911 14.0207 42.4061 14.0207ZM29.4998 17.7082C32.7598 17.7082 35.8862 19.0032 38.1914 21.3083C40.4965 23.6135 41.7915 26.7399 41.7915 29.9998C41.7915 33.2598 40.4965 36.3862 38.1914 38.6914C35.8862 40.9965 32.7598 42.2915 29.4998 42.2915C26.2399 42.2915 23.1135 40.9965 20.8083 38.6914C18.5032 36.3862 17.2082 33.2598 17.2082 29.9998C17.2082 26.7399 18.5032 23.6135 20.8083 21.3083C23.1135 19.0032 26.2399 17.7082 29.4998 17.7082ZM29.4998 22.6248C27.5439 22.6248 25.668 23.4018 24.2849 24.7849C22.9018 26.168 22.1248 28.0439 22.1248 29.9998C22.1248 31.9558 22.9018 33.8317 24.2849 35.2148C25.668 36.5978 27.5439 37.3748 29.4998 37.3748C31.4558 37.3748 33.3317 36.5978 34.7148 35.2148C36.0978 33.8317 36.8748 31.9558 36.8748 29.9998C36.8748 28.0439 36.0978 26.168 34.7148 24.7849C33.3317 23.4018 31.4558 22.6248 29.4998 22.6248Z" fill="#C58E24"/>
</svg>