<svg xmlns="http://www.w3.org/2000/svg" width="62" height="19" viewBox="0 0 62 19" fill="none">
  <g clip-path="url(#clip0_1969_1571)">
    <path d="M0.830601 12.7744C0.830601 11.9161 0.815315 11.1975 0.768066 10.5546H2.42245L2.50096 11.6577H2.54682C2.92133 11.0755 3.60782 10.3856 4.88769 10.3856C5.88686 10.3856 6.66645 10.9378 6.99441 11.764H7.02637C7.2918 11.3509 7.60308 11.0441 7.96161 10.8307C8.38337 10.539 8.86836 10.3856 9.49162 10.3856C10.7562 10.3856 12.0347 11.2275 12.0347 13.6177V18.0108H10.1621V13.8917C10.1621 12.6523 9.72508 11.9161 8.80443 11.9161C8.14921 11.9161 7.66492 12.3769 7.46272 12.9128C7.40646 13.1173 7.37497 13.3276 7.36892 13.5393V18.0115H5.49636V13.692C5.49636 12.653 5.0753 11.9167 4.18522 11.9167C3.46886 11.9167 2.98526 12.469 2.81155 12.9884C2.73443 13.1725 2.70246 13.3879 2.70246 13.6006V18.0115H0.830601V12.7744ZM19.3311 16.2206C19.3311 16.8934 19.3623 17.5513 19.4395 18.0115H17.7072L17.5829 17.1852H17.5356C17.0673 17.7674 16.271 18.1792 15.2899 18.1792C13.7599 18.1792 12.9018 17.0932 12.9018 15.9595C12.9018 14.0744 14.6014 13.1268 17.4119 13.1418V13.0198C17.4119 12.5289 17.2084 11.7177 15.866 11.7177C15.1162 11.7177 14.3366 11.9481 13.8218 12.2685L13.4473 11.0434C14.0094 10.706 14.9926 10.3849 16.1932 10.3849C18.6286 10.3849 19.3318 11.9024 19.3318 13.5236L19.3311 16.2206ZM17.4578 14.3683C16.0994 14.3369 14.805 14.628 14.805 15.7611C14.805 16.496 15.2899 16.8334 15.8979 16.8334C16.6615 16.8334 17.2243 16.3419 17.396 15.8067C17.438 15.6729 17.4591 15.5336 17.4585 15.3936V14.3683H17.4578ZM20.6568 12.7744C20.6568 11.9161 20.6408 11.1975 20.5956 10.5546H22.2792L22.3723 11.6741H22.4196C22.7468 11.0912 23.5744 10.3856 24.8383 10.3856C26.1654 10.3856 27.5377 11.2275 27.5377 13.587V18.0108H25.6185V13.8011C25.6185 12.7294 25.2121 11.9154 24.1671 11.9154C23.4034 11.9154 22.8712 12.4519 22.669 13.0191C22.6065 13.1868 22.5912 13.4173 22.5912 13.63V18.0101H20.6561L20.6568 12.7744ZM35.8603 7.55908V15.9138C35.8603 16.6794 35.8923 17.5077 35.9228 18.0115H34.2073L34.1288 16.8334H34.0968C33.6452 17.6597 32.7232 18.1799 31.6163 18.1799C29.8056 18.1799 28.3708 16.6644 28.3708 14.369C28.3541 11.8724 29.9452 10.3862 31.7726 10.3862C32.8176 10.3862 33.5667 10.8151 33.9099 11.3686H33.9426V7.55976H35.861V7.55908H35.8603ZM33.9419 13.6627C33.9419 13.5107 33.9266 13.3266 33.8946 13.1725C33.723 12.439 33.1157 11.8411 32.2409 11.8411C31.0083 11.8411 30.3204 12.9134 30.3204 14.3062C30.3204 15.6677 31.0076 16.6637 32.2257 16.6637C33.0046 16.6637 33.6917 16.1422 33.8786 15.3309C33.9259 15.1632 33.9426 14.9784 33.9426 14.78V13.6627H33.9419ZM37.218 18.0115V10.5546H39.1545V18.0115H37.218ZM40.5108 12.9591C40.5108 11.9488 40.4962 11.2282 40.4496 10.5553H42.1193L42.1804 11.9781H42.2437C42.6182 10.9221 43.5069 10.5553 44.3205 10.5553C44.5074 10.5553 44.6158 10.524 44.7714 10.5553V12.2099C44.5873 12.1699 44.3993 12.1493 44.2107 12.1485C43.288 12.1485 42.664 12.7307 42.4931 13.5713C42.4553 13.7637 42.4346 13.959 42.4313 14.1549V18.0122H40.5108V12.9591ZM45.6622 18.0115V10.5546H47.5959V18.0115H45.6622Z" fill="#0D2B5B"/>
    <path d="M59.6416 2.66831C58.6834 1.59594 57.6648 2.08133 56.8553 2.47606C56.5149 2.64104 54.0573 4.00792 54.0573 4.00792C52.7107 4.55263 51.6622 3.95816 51.2508 3.45776C51.2115 3.41031 51.176 3.35994 51.1445 3.3071L51.0487 3.14416C50.8866 2.86915 50.7065 2.60476 50.5095 2.35267C50.3899 2.19986 50.2604 2.05481 50.1218 1.9184C49.2004 1.00555 47.7281 0.366764 45.267 1.52708C44.1018 2.18973 40.3059 4.31743 40.3059 4.31743C38.8795 4.8935 37.7886 4.19199 37.4342 3.67728C37.4183 3.65801 37.4043 3.63723 37.3925 3.61524L37.346 3.53752L37.1056 3.15166C36.9971 2.98263 36.8807 2.81862 36.7568 2.66013C36.636 2.5083 36.5063 2.36352 36.3684 2.22654C35.4533 1.31915 33.9886 0.681727 31.549 1.82023C30.0739 2.64649 26.6429 4.57104 26.6429 4.57104L26.6415 4.5724L24.1304 5.98019L25.4297 7.54546C25.9765 8.05676 27.0042 8.8953 28.5939 8.18834C28.5939 8.18834 32.9818 5.69522 32.9991 5.68773C36.7505 3.66774 38.6015 5.59774 39.42 6.88417C39.4485 6.9244 39.4715 6.96803 39.4972 7.00689L39.4985 7.00893C39.509 7.02461 39.5152 7.03893 39.5243 7.05393L39.6167 7.20255C40.0155 7.79566 40.6443 8.17879 41.394 8.16107C41.8075 8.15289 42.0882 8.02063 42.4967 7.7977L46.7421 5.38162L46.7512 5.37753C50.5498 3.333 52.4321 5.38912 53.236 6.67556C53.2985 6.78669 53.3694 6.89304 53.4423 6.99189C53.8405 7.5216 54.3894 7.8686 55.087 7.85156C55.5477 7.8427 56.0639 7.57137 56.141 7.5216L61.2307 4.63921C61.232 4.64058 60.7123 3.86953 59.6416 2.66831Z" fill="#FDD213"/>
  </g>
  <defs>
    <clipPath id="clip0_1969_1571">
      <rect width="60.48" height="17.28" fill="white" transform="translate(0.759766 0.899902)"/>
    </clipPath>
  </defs>
</svg>