<svg xmlns="http://www.w3.org/2000/svg" width="29" height="28" viewBox="0 0 29 28" fill="none">
    <g clip-path="url(#clip0_1230_3658)">
    <path d="M15.8288 3.92782C14.1441 3.92628 12.4967 4.42447 11.0951 5.35935C9.69352 6.29424 8.60071 7.62382 7.95491 9.17991C7.30911 10.736 7.13934 12.4486 7.46708 14.1012C7.79482 15.7538 8.60534 17.2721 9.7961 18.4639C10.9869 19.6558 12.5044 20.4677 14.1567 20.7969C15.8089 21.1262 17.5218 20.958 19.0784 20.3136C20.6351 19.6692 21.9657 18.5776 22.9019 17.1769C23.838 15.7762 24.3377 14.1293 24.3377 12.4445C24.3275 10.1902 23.428 8.03107 21.8347 6.43632C20.2414 4.84157 18.0831 3.94009 15.8288 3.92782ZM15.8288 2.33337C17.8286 2.33337 19.7835 2.92638 21.4463 4.0374C23.109 5.14843 24.405 6.72757 25.1703 8.57513C25.9356 10.4227 26.1358 12.4557 25.7457 14.4171C25.3555 16.3784 24.3925 18.1801 22.9785 19.5941C21.5644 21.0082 19.7628 21.9712 17.8014 22.3613C15.84 22.7515 13.807 22.5512 11.9595 21.7859C10.1119 21.0206 8.53277 19.7247 7.42174 18.0619C6.31072 16.3992 5.71771 14.4443 5.71771 12.4445C5.71771 9.76285 6.78299 7.19105 8.67919 5.29485C10.5754 3.39865 13.1472 2.33337 15.8288 2.33337Z" fill="#C58E24"/>
    <path d="M1.30738 25.8922L7.0396 20.1211L8.14404 21.2178L2.41182 26.9889C2.33981 27.0614 2.25422 27.119 2.15995 27.1585C2.06567 27.1979 1.96454 27.2184 1.86235 27.2187C1.76015 27.2191 1.65889 27.1993 1.56433 27.1606C1.46978 27.1218 1.38378 27.0648 1.31126 26.9928C1.23875 26.9208 1.18112 26.8352 1.14168 26.7409C1.10224 26.6466 1.08175 26.5455 1.08139 26.4433C1.08103 26.3411 1.1008 26.2398 1.13957 26.1453C1.17835 26.0507 1.23537 25.9647 1.30738 25.8922Z" fill="#C58E24"/>
    </g>
    <defs>
    <clipPath id="clip0_1230_3658">
    <rect width="28" height="28" fill="white" transform="matrix(-1 0 0 1 28.5298 0)"/>
    </clipPath>
    </defs>
</svg>