<svg xmlns="http://www.w3.org/2000/svg" width="14" height="12" viewBox="0 0 14 12" fill="none">
  <path d="M6.86106 0.5V0.25H6.61106H2.72217C2.03181 0.25 1.47217 0.809643 1.47217 1.5V3.43335V3.68335H1.72217H6.61106H6.86106V3.43335V0.5Z" fill="white" stroke="#605A5A" stroke-width="0.5"/>
  <path d="M6.61133 0.25H6.36133V0.5V3.43335V3.68335H6.61133H11.5002H11.7502V3.43335V1.5C11.7502 0.809644 11.1906 0.25 10.5002 0.25H6.61133Z" fill="white" stroke="#605A5A" stroke-width="0.5"/>
  <path d="M12.7222 8.60724H12.9722V8.35724V5.16675C12.9722 4.47639 12.4126 3.91675 11.7222 3.91675H1.5C0.809644 3.91675 0.25 4.47639 0.25 5.16675V8.35724V8.60724H0.5H12.7222Z" fill="white" stroke="#605A5A" stroke-width="0.5"/>
  <path d="M3.11908 9.40479H1.37305V11.5H2.24606L3.11908 9.40479Z" fill="#605A5A" stroke="#605A5A" stroke-width="0.7"/>
  <path d="M11.8491 9.40479H10.103L10.976 11.5H11.8491V9.40479Z" fill="#605A5A" stroke="#605A5A" stroke-width="0.7"/>
</svg>