<svg xmlns="http://www.w3.org/2000/svg" width="11" height="11" viewBox="0 0 11 11" fill="none">
  <g clip-path="url(#clip0_1230_3391)">
    <path d="M7.42046 4.24191L10.1086 1.57031L10.0998 3.08469C10.097 3.21094 10.1972 3.32078 10.3236 3.31797L10.4839 3.31781C10.6103 3.31484 10.7148 3.23969 10.7175 3.11344L10.7241 0.8575C10.7241 0.855322 10.7155 0.853604 10.7155 0.851416L10.7278 0.737041C10.7291 0.673604 10.7142 0.617041 10.6733 0.576582C10.6328 0.535801 10.5761 0.510957 10.5131 0.512676L10.3989 0.515332C10.3967 0.515332 10.395 0.516113 10.3926 0.516436L8.15158 0.506592C8.02532 0.509404 7.92079 0.613779 7.91798 0.740186L7.91767 0.900508C7.93688 1.04941 8.05392 1.13645 8.18017 1.13363L9.6572 1.13754L6.9786 3.79988C6.85656 3.92191 6.85656 4.11973 6.9786 4.24191C7.10063 4.36379 7.29844 4.36379 7.42046 4.24191ZM4.03359 6.75781L1.34547 9.42109L1.35407 7.915C1.35703 7.78859 1.25671 7.67875 1.13046 7.68156L0.960315 7.68187C0.833753 7.685 0.729368 7.76 0.726712 7.88641L0.720149 10.1423C0.720149 10.1445 0.728743 10.1459 0.728743 10.1484L0.716399 10.2625C0.714993 10.3259 0.729837 10.3828 0.77093 10.423C0.811243 10.4639 0.868118 10.4886 0.93093 10.487L1.04531 10.4842C1.04748 10.4842 1.04905 10.4833 1.05156 10.4833L3.30248 10.4931C3.42873 10.49 3.53312 10.3856 3.53608 10.2594L3.53639 10.0989C3.51718 9.95031 3.40014 9.86297 3.27389 9.86578L1.79687 9.86188L4.47531 7.19984C4.59734 7.0778 4.59734 6.88 4.47531 6.75797C4.35327 6.63594 4.15561 6.63578 4.03358 6.75781H4.03359ZM10.7242 10.1422L10.7177 7.88623C10.7149 7.75982 10.6103 7.68482 10.4841 7.6817L10.3238 7.68139C10.1974 7.67856 10.0974 7.78856 10.1 7.91481L10.1088 9.42919L7.42048 6.75778C7.29845 6.63575 7.10064 6.63575 6.97861 6.75778C6.85658 6.87981 6.85658 7.07763 6.97861 7.19966L9.65704 9.86169L8.18017 9.8656C8.05392 9.86278 7.93689 9.95014 7.91767 10.0987L7.91798 10.2592C7.92095 10.3856 8.02548 10.49 8.15158 10.4929L10.3928 10.4831C10.3952 10.4831 10.3969 10.484 10.3991 10.484L10.5133 10.4868C10.5763 10.4884 10.6331 10.4637 10.6734 10.4228C10.7144 10.3825 10.7291 10.3258 10.728 10.2623L10.7156 10.1483C10.7156 10.1458 10.7242 10.1444 10.7242 10.1422L10.7242 10.1422ZM1.79688 1.13778L3.27407 1.13391C3.40031 1.13672 3.51735 1.04953 3.53656 0.900771L3.53625 0.740313C3.53312 0.613916 3.42872 0.509375 3.30265 0.506719L1.05156 0.516406C1.04906 0.516094 1.04749 0.515313 1.04531 0.515313L0.93093 0.512646C0.868128 0.510938 0.811096 0.535781 0.77093 0.576553C0.729837 0.617021 0.715003 0.673584 0.716399 0.737021L0.728743 0.851396C0.728743 0.853574 0.720149 0.855146 0.720149 0.85749L0.726712 3.11343C0.729524 3.23968 0.833909 3.31483 0.960315 3.3178L1.13047 3.31795C1.25672 3.32076 1.35687 3.21092 1.35406 3.08467L1.34546 1.57857L4.03359 4.24186C4.15546 4.3639 4.35344 4.3639 4.47548 4.24186C4.59752 4.11981 4.59751 3.92186 4.47548 3.79982L1.79688 1.13778Z" fill="#605A5A"/>
  </g>
  <defs>
    <clipPath id="clip0_1230_3391">
      <rect width="10" height="10" fill="white" transform="translate(0.722168 0.5)"/>
    </clipPath>
  </defs>
</svg>