<svg xmlns="http://www.w3.org/2000/svg" width="36" height="36" viewBox="0 0 36 36" fill="none">
  <path d="M26.252 20.6198L21.752 18.3698C21.619 18.3037 21.471 18.2739 21.3229 18.2833C21.1748 18.2926 21.0317 18.3409 20.9082 18.4233L18.7032 19.8928C17.5869 19.3214 16.6787 18.4132 16.1073 17.2969L17.5782 15.0933C17.6605 14.9698 17.7088 14.8267 17.7182 14.6786C17.7276 14.5304 17.6977 14.3824 17.6316 14.2495L15.3816 9.74953C15.3117 9.60874 15.2038 9.4903 15.0701 9.40756C14.9364 9.32482 14.7823 9.28107 14.6251 9.28125C13.2078 9.28125 11.8486 9.84425 10.8465 10.8464C9.84433 11.8485 9.28133 13.2077 9.28133 14.625C9.28505 17.8313 10.5604 20.9053 12.8276 23.1725C15.0948 25.4397 18.1688 26.715 21.3751 26.7188C22.7923 26.7188 24.1515 26.1557 25.1537 25.1536C26.1558 24.1515 26.7188 22.7923 26.7188 21.375C26.7189 21.2182 26.6752 21.0644 26.5928 20.931C26.5103 20.7977 26.3923 20.6899 26.252 20.6198ZM21.3751 25.0312C18.6162 25.0279 15.9713 23.9305 14.0205 21.9796C12.0696 20.0288 10.9722 17.3839 10.9688 14.625C10.9689 13.7426 11.2881 12.8899 11.8676 12.2244C12.447 11.5589 13.2476 11.1254 14.1216 11.0039L15.902 14.5645L14.4409 16.7555C14.3641 16.871 14.317 17.0037 14.3038 17.1418C14.2905 17.2799 14.3115 17.4191 14.3649 17.5472C15.1408 19.3918 16.6082 20.8593 18.4529 21.6352C18.5809 21.6886 18.7202 21.7096 18.8583 21.6963C18.9964 21.6831 19.1291 21.636 19.2446 21.5592L21.4355 20.0981L24.9962 21.8784C24.8747 22.7525 24.4412 23.5531 23.7757 24.1325C23.1101 24.712 22.2575 25.0312 21.3751 25.0312ZM18.0001 3.65625C15.5135 3.65573 13.0696 4.30162 10.9079 5.53055C8.74629 6.75948 6.94126 8.52924 5.66992 10.6662C4.39858 12.8032 3.70459 15.2339 3.65605 17.72C3.60752 20.2061 4.20609 22.6621 5.39305 24.847L3.75899 29.7506C3.64331 30.0975 3.62652 30.4698 3.71051 30.8257C3.79449 31.1815 3.97594 31.507 4.2345 31.7656C4.49307 32.0241 4.81854 32.2056 5.17443 32.2896C5.53032 32.3736 5.90257 32.3568 6.24946 32.2411L11.1531 30.607C13.0726 31.6487 15.2046 32.2383 17.3866 32.3309C19.5685 32.4234 21.7428 32.0165 23.7437 31.1412C25.7445 30.2658 27.519 28.9452 28.932 27.2799C30.3449 25.6146 31.3589 23.6486 31.8966 21.5319C32.4344 19.4152 32.4817 17.2037 32.035 15.0659C31.5883 12.9282 30.6593 10.9207 29.3189 9.19645C27.9785 7.47224 26.2621 6.07687 24.3005 5.11675C22.3389 4.15662 20.184 3.65709 18.0001 3.65625ZM18.0001 30.6562C15.7753 30.6568 13.5897 30.0708 11.6635 28.9575C11.5351 28.8837 11.3898 28.8444 11.2416 28.8436C11.1509 28.8441 11.0607 28.8588 10.9745 28.8872L5.71649 30.6394C5.66693 30.6559 5.61375 30.6583 5.56291 30.6463C5.51207 30.6343 5.46558 30.6084 5.42864 30.5714C5.3917 30.5345 5.36578 30.488 5.35378 30.4372C5.34178 30.3863 5.34418 30.3331 5.36071 30.2836L7.1129 25.0312C7.15081 24.9178 7.16414 24.7975 7.15202 24.6785C7.1399 24.5594 7.10259 24.4443 7.04258 24.3408C5.64654 21.9292 5.08539 19.1243 5.44619 16.3612C5.807 13.5982 7.06959 11.0314 9.03809 9.05918C11.0066 7.08694 13.5709 5.81948 16.3333 5.45343C19.0957 5.08738 21.9017 5.6432 24.3159 7.03467C26.7301 8.42614 28.6176 10.5755 29.6856 13.1492C30.7537 15.7229 30.9424 18.5772 30.2227 21.2691C29.5029 23.9611 27.9148 26.3403 25.7049 28.0375C23.4949 29.7348 20.7866 30.6553 18.0001 30.6562Z" fill="white"/>
</svg>